<svg width="42" height="32" viewBox="0 0 42 32" fill="none" xmlns="http://www.w3.org/2000/svg">
<path d="M6.764 31.482C6.20667 31.482 5.63667 31.444 5.054 31.368C3.458 31.1653 2.28 30.6967 1.52 29.962C0.785333 29.2273 0.418 28.4293 0.418 27.568C0.418 26.6307 0.836 25.782 1.672 25.022C2.508 24.2367 3.686 23.844 5.206 23.844C6.21933 23.844 7.32133 24.0467 8.512 24.452C9.17067 24.68 9.956 25.06 10.868 25.592C11.78 26.124 12.8313 26.6813 14.022 27.264C15.2887 26.048 16.4413 24.5407 17.48 22.742C18.544 20.9433 19.5953 19.018 20.634 16.966C21.698 14.8887 22.838 12.8113 24.054 10.734C25.2953 8.65667 26.7267 6.706 28.348 4.882L30.552 2.412C29.6147 2.26 28.6393 2.146 27.626 2.07C26.6127 1.96867 25.5613 1.918 24.472 1.918C23.104 1.918 21.698 1.994 20.254 2.146C18.81 2.27267 17.366 2.488 15.922 2.792C13.5407 3.29867 11.5267 4.10933 9.88 5.224C8.23333 6.33867 6.97933 7.55466 6.118 8.872C5.282 10.164 4.864 11.38 4.864 12.52C4.864 13.3053 5.07933 14.0147 5.51 14.648C5.966 15.256 6.63733 15.6993 7.524 15.978C8.08133 16.1553 8.65133 16.244 9.234 16.244C10.0953 16.244 10.8553 16.0667 11.514 15.712C12.1727 15.3573 12.73 14.9267 13.186 14.42C13.642 13.888 13.9713 13.3813 14.174 12.9C14.402 12.4187 14.5033 12.064 14.478 11.836C14.478 11.6587 14.6047 11.57 14.858 11.57C15.1113 11.57 15.238 11.76 15.238 12.14V12.178C15.238 13.2167 14.9213 14.116 14.288 14.876C13.6547 15.636 12.8567 16.2187 11.894 16.624C10.9567 17.0293 10.0067 17.232 9.044 17.232C8.436 17.232 7.80267 17.1307 7.144 16.928C5.776 16.4467 4.76267 15.75 4.104 14.838C3.44533 13.9007 3.116 12.8747 3.116 11.76C3.116 10.7213 3.39467 9.65733 3.952 8.568C4.53467 7.45333 5.38333 6.402 6.498 5.414C7.61267 4.40067 8.99333 3.52667 10.64 2.792C12.312 2.05733 14.2373 1.538 16.416 1.234C17.5813 1.05666 18.734 0.929998 19.874 0.853999C21.014 0.777999 22.116 0.739998 23.18 0.739998C24.6493 0.739998 26.0807 0.815998 27.474 0.967998C28.8927 1.09466 30.2227 1.29733 31.464 1.576C31.8187 1.272 32.1733 1.006 32.528 0.777998C32.908 0.549998 33.25 0.372665 33.554 0.245998C33.7313 0.169999 33.8833 0.119332 34.01 0.0939977C34.1367 0.0686647 34.238 0.0559982 34.314 0.0559982C34.466 0.0559982 34.542 0.106665 34.542 0.207999C34.542 0.334665 34.352 0.537332 33.972 0.816C33.7187 0.993332 33.478 1.196 33.25 1.424C33.022 1.62667 32.8827 1.77867 32.832 1.88C35.416 2.53867 37.506 3.45066 39.102 4.616C40.7233 5.756 41.534 7.11133 41.534 8.682C41.534 9.49266 41.268 10.3793 40.736 11.342C40.1787 12.2793 39.406 13.0393 38.418 13.622C37.43 14.1793 36.3787 14.5973 35.264 14.876C34.1493 15.1293 33.1107 15.2813 32.148 15.332C32.984 15.5853 33.896 15.9653 34.884 16.472C35.8973 16.9533 36.822 17.5487 37.658 18.258C38.5193 18.9673 39.0893 19.8033 39.368 20.766C39.5453 21.374 39.634 21.9947 39.634 22.628C39.634 23.9707 39.2413 25.1867 38.456 26.276C37.696 27.3653 36.67 28.3027 35.378 29.088C34.1113 29.848 32.718 30.4307 31.198 30.836C29.678 31.2667 28.1707 31.482 26.676 31.482C26.1187 31.482 25.5487 31.444 24.966 31.368C22.534 31.064 20.52 30.684 18.924 30.228C17.3533 29.772 15.9727 29.2653 14.782 28.708C12.3247 30.5573 9.652 31.482 6.764 31.482ZM26.144 30.38C27.7147 30.38 29.146 30.1393 30.438 29.658C31.73 29.1767 32.8447 28.5433 33.782 27.758C34.7447 26.9727 35.4793 26.0987 35.986 25.136C36.518 24.1733 36.784 23.2233 36.784 22.286C36.784 21.3993 36.518 20.538 35.986 19.702C35.454 18.866 34.618 18.1693 33.478 17.612C32.49 17.1307 31.464 16.738 30.4 16.434C29.3613 16.1047 28.462 15.826 27.702 15.598C26.942 15.3447 26.4987 15.0913 26.372 14.838C26.372 14.534 26.4987 14.3313 26.752 14.23C27.0307 14.1033 27.3853 14.04 27.816 14.04C28.3227 14.04 28.9307 14.078 29.64 14.154C30.3493 14.23 31.0967 14.268 31.882 14.268C32.6927 14.268 33.516 14.0907 34.352 13.736C35.2133 13.356 35.9987 12.862 36.708 12.254C37.4173 11.6207 37.9873 10.9367 38.418 10.202C38.874 9.442 39.102 8.66933 39.102 7.884C39.102 7.17467 38.8613 6.478 38.38 5.794C37.8987 5.11 37.1007 4.51467 35.986 4.008C34.8713 3.50133 33.668 3.096 32.376 2.792C31.1093 4.54 29.8427 6.50333 28.576 8.682C27.3093 10.8353 26.0427 13.0267 24.776 15.256C23.5093 17.46 22.23 19.55 20.938 21.526C19.646 23.502 18.354 25.1993 17.062 26.618C16.758 26.9473 16.5173 27.2007 16.34 27.378C16.1627 27.53 15.922 27.7453 15.618 28.024C16.8087 28.5053 18.164 28.9613 19.684 29.392C21.204 29.8227 22.9393 30.1267 24.89 30.304C25.0927 30.3293 25.2953 30.342 25.498 30.342C25.726 30.3673 25.9413 30.38 26.144 30.38ZM6.004 30.304C7.42267 30.38 8.71467 30.2153 9.88 29.81C11.0707 29.3793 12.1727 28.784 13.186 28.024C12.2993 27.5933 11.3873 27.15 10.45 26.694C9.538 26.2127 8.56267 25.782 7.524 25.402C6.78933 25.1487 6.118 25.022 5.51 25.022C4.57267 25.022 3.86333 25.2753 3.382 25.782C2.90067 26.2633 2.66 26.8207 2.66 27.454C2.66 28.1127 2.93867 28.746 3.496 29.354C4.05333 29.9367 4.88933 30.2533 6.004 30.304Z" fill="white"/>
</svg>
